<svg width="13" height="13" viewBox="0 0 13 13" fill="none" xmlns="http://www.w3.org/2000/svg">
<path d="M11.7763 3.06236C12.2018 2.63684 12.2018 1.94582 11.7763 1.5203C11.3508 1.09479 10.6598 1.09479 10.2343 1.5203L6.64977 5.10821L3.06187 1.52371C2.63636 1.0982 1.94533 1.0982 1.51982 1.52371C1.09431 1.94922 1.09431 2.64025 1.51982 3.06576L5.10772 6.65026L1.52322 10.2382C1.09771 10.6637 1.09771 11.3547 1.52322 11.7802C1.94873 12.2057 2.63976 12.2057 3.06527 11.7802L6.64977 8.19231L10.2377 11.7768C10.6632 12.2023 11.3542 12.2023 11.7797 11.7768C12.2052 11.3513 12.2052 10.6603 11.7797 10.2348L8.19182 6.65026L11.7763 3.06236Z" fill="#125365" stroke="#125365"/>
</svg>
