<svg width="95" height="33" viewBox="0 0 95 33" fill="none" xmlns="http://www.w3.org/2000/svg">
<path d="M11.3836 19.0721H17.48L19.6815 21.837L23.4071 26.0689L28.2617 31.9373H21.3185L17.8752 27.931L15.5608 24.6019L11.3836 19.0721ZM28.2052 15.3479C28.2052 18.5642 27.5796 21.2774 26.3283 23.4874C25.077 25.6881 23.3883 27.3573 21.2621 28.4953C19.1359 29.6238 16.765 30.1881 14.1496 30.1881C11.5153 30.1881 9.13512 29.6191 7.0089 28.4812C4.89209 27.3338 3.20805 25.6599 1.95678 23.4592C0.714924 21.2492 0.0939941 18.5454 0.0939941 15.3479C0.0939941 12.1316 0.714924 9.42317 1.95678 7.22255C3.20805 5.01251 4.89209 3.34324 7.0089 2.21471C9.13512 1.07678 11.5153 0.507812 14.1496 0.507812C16.765 0.507812 19.1359 1.07678 21.2621 2.21471C23.3883 3.34324 25.077 5.01251 26.3283 7.22255C27.5796 9.42317 28.2052 12.1316 28.2052 15.3479ZM20.1331 15.3479C20.1331 13.6175 19.9026 12.1599 19.4416 10.9749C18.99 9.78054 18.3174 8.87772 17.4236 8.26643C16.5392 7.64574 15.4479 7.3354 14.1496 7.3354C12.8513 7.3354 11.7553 7.64574 10.8615 8.26643C9.97713 8.87772 9.30446 9.78054 8.84347 10.9749C8.39188 12.1599 8.16609 13.6175 8.16609 15.3479C8.16609 17.0783 8.39188 18.5407 8.84347 19.7351C9.30446 20.92 9.97713 21.8229 10.8615 22.4436C11.7553 23.0548 12.8513 23.3605 14.1496 23.3605C15.4479 23.3605 16.5392 23.0548 17.4236 22.4436C18.3174 21.8229 18.99 20.92 19.4416 19.7351C19.9026 18.5407 20.1331 17.0783 20.1331 15.3479Z" fill="#F1F1EF"/>
<path d="M48.677 0.507812H56.5234V19.0156C56.5234 21.2163 55.9965 23.1207 54.9428 24.7288C53.8985 26.3276 52.4403 27.5642 50.5681 28.4388C48.6959 29.3041 46.5226 29.7367 44.0483 29.7367C41.5552 29.7367 39.3725 29.3041 37.5003 28.4388C35.6281 27.5642 34.1699 26.3276 33.1256 24.7288C32.0907 23.1207 31.5732 21.2163 31.5732 19.0156V0.507812H39.4195V18.3385C39.4195 19.232 39.6171 20.0313 40.0122 20.7367C40.4074 21.4326 40.9531 21.978 41.6492 22.373C42.3548 22.768 43.1545 22.9655 44.0483 22.9655C44.9515 22.9655 45.7511 22.768 46.4473 22.373C47.1435 21.978 47.6892 21.4326 48.0843 20.7367C48.4795 20.0313 48.677 19.232 48.677 18.3385V0.507812Z" fill="#F1F1EF"/>
<path d="M67.6815 0.507812V29.3981H59.8352V0.507812H67.6815Z" fill="#F1F1EF"/>
<path d="M70.9929 29.3981V25.0533L84.6534 6.82756H71.0494V0.507812H94.6447V4.85264L80.9843 23.0783H94.5883V29.3981H70.9929Z" fill="#F1F1EF"/>
</svg>
